<svg width="102" height="94" viewBox="0 0 102 94" fill="none" xmlns="http://www.w3.org/2000/svg">
<g clip-path="url(#clip0_19_3261)">
<path d="M92.7039 31.3333H91.539L77.145 7.83333C76.604 6.94249 75.8793 6.16084 75.0127 5.53366C74.1462 4.90647 73.1552 4.44622 72.097 4.17956C71.0389 3.9129 69.9346 3.84514 68.8482 3.98019C67.7619 4.11524 66.7149 4.45043 65.7681 4.96633L4.67231 38.2188C2.75924 39.263 1.36542 40.9718 0.794749 42.9725C0.224078 44.9733 0.522843 47.1038 1.6259 48.8996L13.0866 67.6095V82.25C13.0866 86.5701 16.8454 90.0833 21.4674 90.0833H92.7039C97.3259 90.0833 101.085 86.5701 101.085 82.25V39.1667C101.085 34.8466 97.3259 31.3333 92.7039 31.3333Z" fill="#303C42"/>
<path d="M79.7476 19.9633L86.7121 31.3333H58.8544L79.7476 19.9633Z" fill="#01579B"/>
<path opacity="0.1" d="M66.0493 27.4166L58.8544 31.3333H86.7121L84.311 27.4166H66.0493Z" fill="black"/>
<path d="M67.8804 8.35431C68.35 8.10093 68.8686 7.93679 69.4062 7.87133C69.9439 7.80587 70.4901 7.84037 71.0135 7.97286C71.5368 8.10534 72.027 8.33319 72.4558 8.64332C72.8847 8.95345 73.2437 9.33973 73.5123 9.77997V9.79172L33.9258 31.3334H25.6539L67.8804 8.35431Z" fill="#01579B"/>
<path opacity="0.1" d="M32.8488 27.4205L25.6539 31.3333H33.9258L41.1165 27.4205H32.8488Z" fill="black"/>
<path d="M6.78055 41.6028L13.2002 38.1091C13.1499 38.4577 13.0871 38.8063 13.0871 39.1666V42.6721L5.25944 46.9334C4.7149 46.0358 4.56919 44.9743 4.85368 43.9773C5.13817 42.9804 5.83011 42.1277 6.78055 41.6028Z" fill="#01579B"/>
<path opacity="0.1" d="M8.97626 40.4082C8.93855 40.6667 8.89246 40.9252 8.89246 41.1955V44.9594L13.087 42.6721V39.1666C13.087 38.8024 13.1499 38.4577 13.2002 38.1091L8.97626 40.4082Z" fill="black"/>
<path d="M11.4863 57.1089L13.0871 56.2394V59.7252L11.4863 57.1089Z" fill="#01579B"/>
<path opacity="0.1" d="M11.4863 57.1089L13.0871 56.2394V59.7252L11.4863 57.1089Z" fill="black"/>
<path d="M96.8948 82.25C96.8948 84.4081 95.0133 86.1667 92.7044 86.1667H21.4679C19.1589 86.1667 17.2775 84.4081 17.2775 82.25V39.1667C17.2775 37.0086 19.1589 35.25 21.4679 35.25H92.7044C95.0133 35.25 96.8948 37.0086 96.8948 39.1667V82.25Z" fill="#1E88E5"/>
<path d="M79.8734 62.6666C78.499 62.6666 77.1623 62.9643 75.9429 63.54C74.7258 62.9643 73.3806 62.665 72.0165 62.6666C67.2478 62.6666 63.3717 66.1799 63.3717 70.5C63.3717 74.8201 67.2478 78.3333 72.0165 78.3333C73.3909 78.3333 74.7276 78.0356 75.947 77.4599C77.1623 78.0356 78.4948 78.3333 79.8734 78.3333C84.6379 78.3333 88.514 74.8201 88.514 70.5C88.514 66.1799 84.6379 62.6666 79.8734 62.6666Z" fill="#303C42"/>
<path d="M79.0856 65.6041C77.8829 65.6041 76.827 66.0467 75.9428 66.6851C75.0546 66.0055 73.9477 65.6247 72.8 65.6041C71.4108 65.6041 70.0785 66.1199 69.0962 67.0381C68.1139 67.9562 67.562 69.2015 67.562 70.5C67.562 71.7984 68.1139 73.0437 69.0962 73.9618C70.0785 74.88 71.4108 75.3958 72.8 75.3958C74.0026 75.3958 75.0586 74.9532 75.9428 74.3148C76.827 74.9532 77.8829 75.3958 79.0856 75.3958C80.4748 75.3958 81.8071 74.88 82.7894 73.9618C83.7717 73.0437 84.3236 71.7984 84.3236 70.5C84.3236 69.2015 83.7717 67.9562 82.7894 67.0381C81.8071 66.1199 80.4748 65.6041 79.0856 65.6041Z" fill="#FF8F00"/>
<path d="M27.7534 66.5833H48.7053C49.261 66.5833 49.7939 66.377 50.1869 66.0097C50.5798 65.6425 50.8005 65.1443 50.8005 64.625C50.8005 64.1056 50.5798 63.6075 50.1869 63.2402C49.7939 62.8729 49.261 62.6666 48.7053 62.6666H27.7534C27.1977 62.6666 26.6648 62.8729 26.2719 63.2402C25.8789 63.6075 25.6582 64.1056 25.6582 64.625C25.6582 65.1443 25.8789 65.6425 26.2719 66.0097C26.6648 66.377 27.1977 66.5833 27.7534 66.5833ZM57.0861 74.4166H27.7534C27.1977 74.4166 26.6648 74.6229 26.2719 74.9902C25.8789 75.3575 25.6582 75.8556 25.6582 76.375C25.6582 76.8943 25.8789 77.3925 26.2719 77.7597C26.6648 78.127 27.1977 78.3333 27.7534 78.3333H57.0861C57.6418 78.3333 58.1747 78.127 58.5676 77.7597C58.9605 77.3925 59.1813 76.8943 59.1813 76.375C59.1813 75.8556 58.9605 75.3575 58.5676 74.9902C58.1747 74.6229 57.6418 74.4166 57.0861 74.4166Z" fill="#303C42"/>
<path d="M73.8476 70.5C73.8476 68.9215 74.6982 67.5781 75.9428 66.6851C75.0546 66.0055 73.9477 65.6247 72.8 65.6041C71.4108 65.6041 70.0785 66.1199 69.0962 67.0381C68.1139 67.9562 67.562 69.2015 67.562 70.5C67.562 71.7984 68.1139 73.0437 69.0962 73.9618C70.0785 74.88 71.4108 75.3958 72.8 75.3958C74.0026 75.3958 75.0586 74.9532 75.9428 74.3148C74.6982 73.4218 73.8476 72.0823 73.8476 70.5Z" fill="#E65100"/>
<path d="M79.0857 65.6041C77.883 65.6041 76.827 66.0467 75.9429 66.6851C77.1874 67.582 78.0381 68.9215 78.0381 70.5C78.0381 72.0784 77.1874 73.4218 75.9429 74.3148C76.827 74.9532 77.883 75.3958 79.0857 75.3958C80.4749 75.3958 81.8072 74.88 82.7895 73.9618C83.7718 73.0437 84.3236 71.7984 84.3236 70.5C84.3236 69.2015 83.7718 67.9562 82.7895 67.0381C81.8072 66.1199 80.4749 65.6041 79.0857 65.6041Z" fill="#FF8F00"/>
<path d="M78.038 70.5C78.038 68.9216 77.1874 67.5782 75.9428 66.6852C74.6983 67.5821 73.8477 68.9216 73.8477 70.5C73.8477 72.0784 74.6983 73.4219 75.9428 74.3149C77.1874 73.4219 78.038 72.0824 78.038 70.5Z" fill="#FF6F00"/>
<path d="M92.7039 31.3333H91.539L77.145 7.83333C76.604 6.94249 75.8793 6.16084 75.0127 5.53366C74.1462 4.90647 73.1552 4.44622 72.097 4.17956C71.0389 3.9129 69.9346 3.84514 68.8482 3.98019C67.7619 4.11524 66.7149 4.45043 65.7681 4.96633L4.67231 38.2188C2.75924 39.263 1.36542 40.9718 0.794749 42.9725C0.224078 44.9733 0.522843 47.1038 1.6259 48.8996L13.0866 67.6095V82.25C13.0866 86.5701 16.8454 90.0833 21.4674 90.0833H92.7039C97.3259 90.0833 101.085 86.5701 101.085 82.25V39.1667C101.085 34.8466 97.3259 31.3333 92.7039 31.3333Z" fill="url(#paint0_linear_19_3261)"/>
</g>
<defs>
<linearGradient id="paint0_linear_19_3261" x1="7.04826" y1="30.1583" x2="103.847" y2="78.4504" gradientUnits="userSpaceOnUse">
<stop stop-color="white" stop-opacity="0.2"/>
<stop offset="1" stop-color="white" stop-opacity="0"/>
</linearGradient>
<clipPath id="clip0_19_3261">
<rect width="100.569" height="94" fill="white" transform="translate(0.515869)"/>
</clipPath>
</defs>
</svg>
